<?xml version="1.0" encoding="UTF-8"?>
<svg id="Iconos" xmlns="http://www.w3.org/2000/svg" viewBox="0 0 100 100">
  <defs>
    <style>
      .cls-1 {
        fill: #6a625a;
        stroke-width: 0px;
      }
    </style>
  </defs>
  <path class="cls-1" d="M50,73.67h0c-.44,0-.85-.23-1.08-.61-.68-1.14-16.63-28.12-16.63-37.45s7.94-17.71,17.71-17.71,17.71,7.94,17.71,17.71-15.96,36.31-16.64,37.45c-.23.38-.63.61-1.08.61ZM50,20.4c-8.39,0-15.21,6.82-15.21,15.21,0,7.33,11.58,28.02,15.21,34.33,3.63-6.31,15.21-27,15.21-34.33,0-8.39-6.82-15.21-15.21-15.21Z"/>
  <path class="cls-1" d="M50,44.65c-4.98,0-9.03-4.05-9.03-9.03,0-.88.13-1.75.38-2.59.2-.66.9-1.04,1.55-.84.66.2,1.04.89.84,1.55-.18.61-.27,1.24-.27,1.88,0,3.6,2.93,6.53,6.53,6.53s6.53-2.93,6.53-6.53-2.93-6.53-6.53-6.53c-.98,0-1.92.21-2.79.62-.63.3-1.37.03-1.67-.59-.3-.62-.03-1.37.59-1.67,1.21-.58,2.51-.87,3.87-.87,4.98,0,9.03,4.05,9.03,9.03s-4.05,9.03-9.03,9.03Z"/>
  <path class="cls-1" d="M58.91,82.1h-17.81c-.69,0-1.25-.56-1.25-1.25s.56-1.25,1.25-1.25h17.81c.69,0,1.25.56,1.25,1.25s-.56,1.25-1.25,1.25Z"/>
</svg>